<?xml version="1.0" standalone="no"?>
<!DOCTYPE svg PUBLIC "-//W3C//DTD SVG 20010904//EN"
 "http://www.w3.org/TR/2001/REC-SVG-20010904/DTD/svg10.dtd">
<svg version="1.0" xmlns="http://www.w3.org/2000/svg"
 width="512.000000pt" height="512.000000pt" viewBox="0 0 512.000000 512.000000"
 preserveAspectRatio="xMidYMid meet">

<g transform="translate(0.000000,512.000000) scale(0.100000,-0.100000)"
fill="#000000" stroke="none">
<path d="M2325 4788 c-414 -41 -838 -217 -1170 -485 -728 -586 -1015 -1565
-719 -2451 108 -323 275 -598 514 -846 189 -196 380 -335 625 -456 778 -384
1712 -280 2390 267 867 698 1088 1924 521 2887 -123 209 -325 441 -521 599
-459 370 -1049 545 -1640 485z m433 -319 c516 -56 983 -312 1304 -714 646
-810 527 -1998 -267 -2663 -581 -487 -1385 -589 -2064 -262 -1132 547 -1446
2001 -639 2965 406 485 1042 742 1666 674z"/>
<path d="M3290 3439 c-105 -9 -161 -25 -265 -74 -181 -85 -253 -163 -242 -261
6 -58 31 -93 88 -122 61 -32 105 -24 196 38 114 76 169 94 293 94 122 0 189
-20 278 -81 30 -21 66 -46 81 -55 33 -23 102 -23 148 -1 19 9 46 33 60 54 22
34 25 47 21 101 -5 61 -5 63 -67 119 -147 135 -371 206 -591 188z"/>
<path d="M1561 3420 c-139 -37 -319 -143 -362 -214 -42 -68 -17 -167 54 -220
41 -30 126 -28 169 4 139 103 200 125 343 124 80 0 112 -5 160 -24 56 -21 77
-34 179 -103 132 -91 301 59 228 203 -39 79 -224 192 -376 230 -107 27 -291
27 -395 0z"/>
<path d="M1887 1915 c-105 -29 -158 -64 -267 -175 -113 -116 -132 -130 -180
-130 -71 0 -143 -58 -156 -125 -10 -58 4 -103 46 -145 49 -49 101 -59 199 -37
121 28 184 67 301 188 112 116 134 128 205 115 26 -5 50 -22 88 -64 118 -127
155 -160 224 -194 144 -72 281 -72 426 0 59 28 92 56 179 146 l107 111 61 0
61 0 107 -111 c122 -126 198 -173 320 -194 93 -17 137 -7 183 39 41 41 55 88
44 148 -9 49 -69 109 -115 117 -19 3 -51 8 -72 11 -30 5 -53 23 -137 114 -71
77 -117 117 -159 139 -113 60 -232 76 -345 47 -108 -28 -155 -59 -274 -183
l-112 -117 -61 0 -61 0 -112 116 c-91 95 -124 122 -177 147 -112 52 -223 64
-323 37z"/>
</g>
</svg>
