<svg id="Capa_1" enable-background="new 0 0 512.566 512.566" height="512" viewBox="0 0 512.566 512.566" width="512" xmlns="http://www.w3.org/2000/svg"><g id="XMLID_209_"><path id="XMLID_1062_" d="m278.118 428.71c5.598 6.072 10.567 12.432 14.87 19.035h-37.235c-8.822 9.314-15.708 19.412-20.449 30h72.085c3.627 11.269 5.522 22.94 5.522 34.822h30c0-27.394-8.186-54.81-23.673-79.284-4.626-7.311-9.923-14.367-15.805-21.115-5.272 3.753-10.749 7.362-16.451 10.799-3.065 1.848-6.013 3.768-8.864 5.743z"/><path id="XMLID_1063_" d="m292.256 65.9c-4.135 6.213-8.856 12.212-14.143 17.95 2.589 1.795 20.443 13.097 25.314 16.566 6.028-6.912 11.433-14.153 16.14-21.653 15.272-24.335 23.344-51.571 23.344-78.763h-30c0 12.254-2.015 24.292-5.879 35.9h-71.217c4.912 10.6 11.972 20.703 20.984 30z"/><path id="XMLID_1069_" d="m271.495 397.273c55.977-33.741 88.175-84.978 88.339-140.573.164-55.47-31.615-106.754-87.19-140.702 0 0-73.36-45.215-74.976-115.998h-30c0 27.192 8.072 54.428 23.345 78.763 9.839 15.678 22.742 30.216 38.003 42.988-50.033 33.845-78.425 82.522-78.27 134.949.154 52.165 28.512 100.491 78.251 134.129-15.085 12.626-27.861 26.976-37.655 42.454-15.487 24.475-23.673 51.891-23.673 79.284h30c-.001-44.99 26.908-87.012 73.826-115.294zm-89.726-125.99h147.041c-1.54 11.436-4.822 22.593-9.743 33.283h-127.554c-4.921-10.69-8.204-21.847-9.744-33.283zm147.043-30h-147.045c1.541-11.431 4.817-22.59 9.742-33.283h127.561c4.925 10.693 8.201 21.852 9.742 33.283zm-75.238-99.683 1.716-1.048 1.717 1.049c17.13 10.464 31.543 22.78 42.918 36.399h-89.271c11.375-13.62 25.789-25.936 42.92-36.4zm.997 229.98c-17.575-10.594-32.344-23.122-43.943-37.014h89.323c-11.6 13.892-26.369 26.42-43.944 37.014-.242.146-.477.299-.718.446-.241-.146-.476-.3-.718-.446z"/><path id="XMLID_1073_" d="m100.242 439.041c-7.846 0-15.363 6.899-15 15 .364 8.127 6.591 15 15 15 7.846 0 15.363-6.899 15-15-.364-8.127-6.59-15-15-15z"/><path id="XMLID_1074_" d="m128.725 88.232c-7.846 0-15.363 6.899-15 15 .364 8.127 6.591 15 15 15 7.846 0 15.363-6.899 15-15-.364-8.127-6.591-15-15-15z"/><path id="XMLID_1075_" d="m47.745 235.225c-7.846 0-15.363 6.899-15 15 .364 8.127 6.591 15 15 15 7.846 0 15.363-6.899 15-15-.364-8.127-6.591-15-15-15z"/><path id="XMLID_1076_" d="m412.324 439.041c-7.846 0-15.363 6.899-15 15 .364 8.127 6.591 15 15 15 7.846 0 15.363-6.899 15-15-.364-8.127-6.591-15-15-15z"/><path id="XMLID_1077_" d="m383.841 88.232c-7.846 0-15.363 6.899-15 15 .364 8.127 6.591 15 15 15 7.846 0 15.363-6.899 15-15-.364-8.127-6.59-15-15-15z"/><path id="XMLID_1092_" d="m464.822 235.225c-7.846 0-15.363 6.899-15 15 .364 8.127 6.591 15 15 15 7.846 0 15.363-6.899 15-15-.364-8.127-6.591-15-15-15z"/></g></svg>