<svg id="Layer_1" enable-background="new 0 0 512 512" height="512" viewBox="0 0 512 512" width="512" xmlns="http://www.w3.org/2000/svg"><g><path d="m350.554 356.827c3.156 2.687 7.889 2.306 10.573-.849 23.709-27.847 36.767-63.354 36.767-99.979 0-85.083-69.221-154.304-154.304-154.304s-154.304 69.221-154.304 154.304 69.221 154.304 154.304 154.304c30.933 0 60.777-9.121 86.307-26.377 3.432-2.32 4.333-6.982 2.014-10.414s-6.983-4.333-10.414-2.014c-23.039 15.573-49.979 23.805-77.906 23.805-76.813 0-139.304-62.492-139.304-139.304s62.492-139.304 139.304-139.304 139.303 62.493 139.303 139.305c0 33.064-11.786 65.118-33.188 90.255-2.685 3.154-2.305 7.887.848 10.572z"/><path d="m131.098 268.603c0 4.142 3.358 7.5 7.5 7.5h24.568c11.146 16.794 29.511 32.471 51.544 51.278l20.447 17.617c2.328 2.05 5.323 3.18 8.433 3.18 3.106 0 6.101-1.128 8.372-3.127l20.48-17.647c22.05-18.822 40.422-34.504 51.57-51.301h23.733c4.143 0 7.5-3.358 7.5-7.5s-3.357-7.5-7.5-7.5h-15.942c2.488-6.65 3.825-13.627 3.825-21.153 0-32.095-22.531-56.298-52.41-56.298-10.88 0-20.838 3.442-29.594 10.228-3.999 3.098-7.323 6.589-10.034 10.004-2.712-3.415-6.036-6.906-10.033-10.002-8.758-6.788-18.716-10.23-29.595-10.23-29.879 0-52.411 24.203-52.411 56.298 0 7.527 1.337 14.504 3.824 21.153h-16.778c-4.141 0-7.499 3.358-7.499 7.5zm131.58 47.415-19.088 16.447-19.115-16.47c-17.77-15.169-32.468-27.716-42.612-39.893h25.668c2.703 0 5.197-1.454 6.528-3.807l5.491-9.706 17.513 30.949c1.331 2.353 3.824 3.807 6.527 3.807s5.196-1.454 6.527-3.807l21.146-37.372 9.126 16.129c1.331 2.353 3.824 3.807 6.527 3.807h18.399c-10.146 12.181-24.851 24.734-42.637 39.916zm-96.127-76.068c0-23.544 16.083-41.298 37.411-41.298 7.474 0 14.339 2.384 20.409 7.087 6.146 4.761 10.265 10.94 12.637 15.285 1.314 2.409 3.84 3.907 6.584 3.907 2.743 0 5.269-1.499 6.583-3.908 2.37-4.344 6.486-10.521 12.638-15.286 6.066-4.702 12.932-7.085 20.406-7.085 21.327 0 37.41 17.754 37.41 41.298 0 7.472-1.818 14.397-5.207 21.153h-24.132l-13.5-23.859c-1.331-2.353-3.824-3.807-6.527-3.807s-5.196 1.454-6.527 3.807l-21.146 37.372-17.513-30.949c-1.331-2.353-3.824-3.807-6.527-3.807s-5.197 1.454-6.528 3.807l-9.865 17.436h-31.4c-3.387-6.756-5.206-13.681-5.206-21.153z"/><path d="m443.429 319.875-19.885-11.481c4.849-16.634 7.451-34.216 7.451-52.394s-2.601-35.76-7.451-52.394l19.885-11.481c11.917-6.88 16.014-22.173 9.134-34.089-6.88-11.915-22.171-16.013-34.069-9.145l-15.387 8.823c-5.379-8.7-11.449-16.93-18.134-24.612l-15.346-33.206c-10.752-23.268-19.772-47.552-26.813-72.181l-2.819-9.841c-3.004-10.523-12.745-17.874-23.688-17.874h-145.518c-10.934 0-20.675 7.34-23.69 17.855l-2.822 9.864c-7.044 24.651-16.065 48.941-26.81 72.193l-15.166 32.798c-12.467 14.274-22.888 30.579-30.711 48.555-1.653 3.798.086 8.217 3.884 9.87 3.799 1.654 8.217-.086 9.87-3.884 27.415-62.995 89.512-103.699 158.202-103.699 95.088 0 172.448 77.36 172.448 172.448s-77.36 172.448-172.448 172.448-172.447-77.36-172.447-172.448c0-11.732 1.184-23.454 3.519-34.837.832-4.058-1.783-8.021-5.84-8.854-4.057-.83-8.022 1.782-8.854 5.84-2.538 12.373-3.825 25.108-3.825 37.851 0 46.975 17.369 89.969 46.022 122.898l15.346 33.206c10.75 23.266 19.771 47.549 26.812 72.181l2.819 9.841c3.004 10.523 12.746 17.874 23.691 17.874h145.518c10.943 0 20.684-7.351 23.687-17.871l2.821-9.864c7.038-24.625 16.059-48.91 26.811-72.178l15.347-33.189c6.684-7.682 12.755-15.912 18.133-24.612l15.368 8.812c3.92 2.263 8.204 3.338 12.436 3.338 8.63 0 17.036-4.476 21.653-12.472 6.88-11.916 2.783-27.209-9.134-34.089zm-17.455-157.982c4.751-2.743 10.854-1.111 13.599 3.644 1.33 2.303 1.683 4.985.995 7.554-.688 2.568-2.336 4.715-4.639 6.045l-17.27 9.971c-2.406-6.277-5.14-12.394-8.182-18.327zm-41.196-29.013c-.413-.473-.828-.944-1.245-1.412l.028-.03c.471.429.879.914 1.217 1.442zm-253.556-26.975c11.008-23.862 20.252-48.779 27.478-74.062l2.82-9.858c1.179-4.112 4.991-6.985 9.27-6.985h145.518c4.279 0 8.089 2.875 9.266 6.999l2.82 9.844c7.24 25.332 16.518 50.313 27.573 74.252-31.341-23.563-70.278-37.542-112.419-37.542-41.375-.001-80.549 13.586-112.326 37.352zm197.171 374.237-2.822 9.867c-1.175 4.117-4.984 6.992-9.264 6.992h-145.518c-4.281 0-8.092-2.875-9.269-6.999l-2.82-9.844c-7.243-25.335-16.519-50.316-27.574-74.253 31.341 23.564 70.279 37.543 112.42 37.543 42.135 0 81.067-13.975 112.406-37.532-11.05 23.932-20.322 48.905-27.559 74.226zm111.18-133.679c-2.744 4.753-8.843 6.39-13.618 3.633l-15.477-8.874c3.042-5.934 5.775-12.05 8.182-18.327l17.27 9.971c2.303 1.33 3.95 3.477 4.639 6.045.686 2.568.334 5.25-.996 7.552z"/></g></svg>